<svg fill="#6F01Ec" version="1.1" id="Capa_1" xmlns="http://www.w3.org/2000/svg" xmlns:xlink="http://www.w3.org/1999/xlink" viewBox="0 0 483 483" xml:space="preserve" stroke="#6F01Ec"><g id="SVGRepo_bgCarrier" stroke-width="0"></g><g id="SVGRepo_tracerCarrier" stroke-linecap="round" stroke-linejoin="round"></g><g id="SVGRepo_iconCarrier"> <g> <path d="M395.72,0c-48.204,0-87.281,39.078-87.281,87.281c0,2.036,0.164,4.03,0.309,6.029l-161.233,75.674 c-15.668-14.971-36.852-24.215-60.231-24.215c-48.204,0.001-87.282,39.079-87.282,87.282c0,48.204,39.078,87.281,87.281,87.281 c15.206,0,29.501-3.907,41.948-10.741l69.789,58.806c-3.056,8.896-4.789,18.396-4.789,28.322c0,48.204,39.078,87.281,87.281,87.281 c48.205,0,87.281-39.078,87.281-87.281s-39.077-87.281-87.281-87.281c-15.205,0-29.5,3.908-41.949,10.74l-69.788-58.805 c3.057-8.891,4.789-18.396,4.789-28.322c0-2.035-0.164-4.024-0.308-6.029l161.232-75.674c15.668,14.971,36.852,24.215,60.23,24.215 c48.203,0,87.281-39.078,87.281-87.281C482.999,39.079,443.923,0,395.72,0z"></path> </g> </g></svg>